<?xml version="1.0" encoding="UTF-8" standalone="no"?>
<svg
   xmlns:dc="http://purl.org/dc/elements/1.1/"
   xmlns:cc="http://creativecommons.org/ns#"
   xmlns:rdf="http://www.w3.org/1999/02/22-rdf-syntax-ns#"
   xmlns:svg="http://www.w3.org/2000/svg"
   xmlns="http://www.w3.org/2000/svg"
   xmlns:sodipodi="http://sodipodi.sourceforge.net/DTD/sodipodi-0.dtd"
   xmlns:inkscape="http://www.inkscape.org/namespaces/inkscape"
   viewBox="0 0 16 16"
   version="1.1"
   id="svg28"
   sodipodi:docname="status-user-group-backend.svg"
   inkscape:version="0.92.3 (2405546, 2018-03-11)">
  <metadata
     id="metadata34">
    <rdf:RDF>
      <cc:Work
         rdf:about="">
        <dc:format>image/svg+xml</dc:format>
        <dc:type
           rdf:resource="http://purl.org/dc/dcmitype/StillImage" />
      </cc:Work>
    </rdf:RDF>
  </metadata>
  <defs
     id="defs32" />
  <sodipodi:namedview
     pagecolor="#ffffff"
     bordercolor="#666666"
     borderopacity="1"
     objecttolerance="10"
     gridtolerance="10"
     guidetolerance="10"
     inkscape:pageopacity="0"
     inkscape:pageshadow="2"
     inkscape:window-width="2560"
     inkscape:window-height="1377"
     id="namedview30"
     showgrid="false"
     inkscape:zoom="14.75"
     inkscape:cx="8"
     inkscape:cy="8"
     inkscape:window-x="-8"
     inkscape:window-y="-8"
     inkscape:window-maximized="1"
     inkscape:current-layer="svg28" />
  <path
     fill="#ABD7FF"
     d="M14.969 9.319c-1.16-.331-1.97-.785-2.778-1.096.049.16.057.241-.041.34-.825.894-2.544.825-3.3 0-.1-.1-.081-.182-.021-.347-.814.31-1.628.769-2.797 1.103 0 0-.963.55-1.031 2.681H16c-.069-2.2-1.031-2.681-1.031-2.681z"
     id="path2" />
  <path
     opacity=".15"
     d="M5.754 11.313c.147-.89.481-1.267.586-1.368.758-.226 1.37-.498 1.913-.739l.185-.083c.503.485 1.267.771 2.074.771.813 0 1.559-.286 2.051-.771l.184.081c.545.242 1.16.515 1.922.742.111.098.439.458.581 1.365l.063.689H16c-.069-2.2-1.031-2.681-1.031-2.681-1.16-.331-1.97-.785-2.778-1.096.049.16.057.241-.041.34-.404.437-1.023.644-1.638.644-.64 0-1.276-.224-1.662-.645-.1-.1-.081-.182-.021-.347-.814.31-1.628.769-2.797 1.103 0 0-.963.55-1.031 2.681h.688l.065-.686z"
     id="path4" />
  <path
     fill="#FFC857"
     d="M10.5 7.188c-.487 0-.97-.283-1.373-.683-.031 1.664-.529 1.805-.277 2.058.756.825 2.475.894 3.3 0 .253-.253-.191-.394-.264-2.072-.406.408-.893.697-1.386.697z"
     id="path6" />
  <path
     opacity=".15"
     d="M8.61 8.306c.072-.03.146-.063.219-.091-.06.165-.079.248.021.348.091.098.196.185.311.262l.207-.079.107-.298.019-.053c.088-.24.238-.658.297-1.403a2.63 2.63 0 0 1-.663-.488c-.019 1.013-.21 1.458-.3 1.711-.073.028-.146.061-.218.091zM11.535 8.424l.098.32.205.079c.113-.076.22-.161.313-.261.098-.098.09-.18.041-.34l.001.001c-.077-.253-.261-.701-.306-1.733-.202.203-.421.37-.655.491.067.709.199 1.121.276 1.358l.027.085z"
     id="path8" />
  <path
     fill="#FFC857"
     d="M10.5 7.188c-1.169 0-2.337-1.581-2.337-2.681V2.994c0-1.1.962-1.994 2.062-1.994h.55c1.169 0 2.063.894 2.063 1.994v1.513c-.001 1.099-1.169 2.681-2.338 2.681z"
     id="path10" />
  <path
     opacity=".15"
     d="M10.775 1.688c.771 0 1.375.574 1.375 1.306v1.513c0 .769-.901 1.994-1.65 1.994S8.85 5.276 8.85 4.506V2.994c0-.696.643-1.306 1.375-1.306h.55m0-.688h-.55c-1.1 0-2.063.894-2.063 1.994v1.513c0 1.1 1.169 2.681 2.337 2.681s2.337-1.581 2.337-2.681V2.994C12.837 1.894 11.944 1 10.775 1z"
     id="path12" />
  <g
     id="g26">
    <path
       fill="#59F"
       d="M9.969 12.319c-1.16-.331-1.97-.785-2.778-1.096.049.16.057.241-.041.34-.825.894-2.544.825-3.3 0-.1-.1-.081-.182-.021-.347-.814.31-1.628.769-2.797 1.103 0 0-.962.55-1.031 2.681H11c-.069-2.2-1.031-2.681-1.031-2.681z"
       id="path14" />
    <path
       opacity=".15"
       d="M.754 14.313c.147-.89.481-1.267.586-1.368.758-.226 1.369-.498 1.913-.739l.185-.082c.503.485 1.267.771 2.074.771.813 0 1.559-.286 2.051-.771l.184.081c.545.242 1.161.515 1.922.742.111.098.439.458.581 1.365l.063.688H11c-.069-2.2-1.031-2.681-1.031-2.681-1.16-.331-1.97-.785-2.778-1.096.049.16.057.241-.041.34-.404.437-1.023.644-1.638.644-.64 0-1.276-.224-1.662-.645-.1-.1-.081-.182-.021-.347-.814.31-1.628.769-2.797 1.103 0 0-.962.55-1.031 2.681h.688l.065-.686z"
       id="path16" />
    <path
       fill="#FFC857"
       d="M5.5 10.188c-.487 0-.97-.283-1.373-.683-.031 1.665-.529 1.806-.277 2.058.756.825 2.475.894 3.3 0 .253-.253-.191-.394-.264-2.072-.406.408-.893.697-1.386.697z"
       id="path18" />
    <path
       opacity=".15"
       d="M3.61 11.306c.072-.03.146-.063.219-.091-.06.165-.078.248.021.347.091.098.196.185.311.262l.207-.079.107-.298.019-.053c.088-.24.238-.658.297-1.403a2.63 2.63 0 0 1-.663-.488c-.019 1.013-.21 1.458-.3 1.711-.073.029-.146.062-.218.092zM6.535 11.424l.098.32.205.079c.113-.076.22-.161.313-.261.098-.098.09-.18.041-.34l.001.001c-.077-.253-.261-.701-.306-1.733-.202.203-.422.37-.655.491.067.709.199 1.121.276 1.358l.027.085z"
       id="path20" />
    <path
       fill="#FFC857"
       d="M5.5 10.188c-1.169 0-2.338-1.581-2.338-2.681V5.994c0-1.1.963-1.994 2.063-1.994h.55c1.169 0 2.063.894 2.063 1.994v1.513c-.001 1.099-1.169 2.681-2.338 2.681z"
       id="path22" />
    <path
       opacity=".15"
       d="M5.775 4.688c.771 0 1.375.574 1.375 1.306v1.513c0 .769-.901 1.993-1.65 1.993S3.85 8.276 3.85 7.506V5.994c0-.696.643-1.306 1.375-1.306h.55m0-.688h-.55c-1.1 0-2.063.894-2.063 1.994v1.513c0 1.1 1.169 2.681 2.338 2.681s2.337-1.581 2.337-2.681V5.994C7.837 4.894 6.944 4 5.775 4z"
       id="path24" />
  </g>
  <g
     id="g72"
     transform="matrix(0.34126698,0,0,0.32691135,10.642631,10.350207)"
     style="stroke-width:2.99390388">
    <path
       id="path52"
       d="M 14.7,13.2 11.9,10.4 C 11.5,11 11,11.5 10.4,11.9 l 2.8,2.7 c 0.2,0.2 0.5,0.3 0.8,0.3 0.6,0 1.1,-0.5 1.1,-1.1 -0.1,-0.2 -0.2,-0.4 -0.4,-0.6 z"
       inkscape:connector-curvature="0"
       style="fill:#e8a33d;stroke-width:2.99390388" />
    <circle
       id="circle54"
       r="6"
       cy="7"
       cx="7"
       style="fill:#abd7ff;stroke-width:2.99390388" />
    <path
       id="path56"
       d="m 7,2.5 c 2.5,0 4.5,2 4.5,4.5 0,2.5 -2,4.5 -4.5,4.5 C 4.5,11.5 2.5,9.5 2.5,7 2.5,4.5 4.5,2.5 7,2.5 M 7,1 C 3.7,1 1,3.7 1,7 c 0,3.3 2.7,6 6,6 3.3,0 6,-2.7 6,-6 C 13,3.7 10.3,1 7,1 Z"
       inkscape:connector-curvature="0"
       style="fill:#5599ff;stroke-width:2.99390388" />
    <circle
       id="circle58"
       r="1.5"
       cy="5.5"
       cx="8.5"
       style="opacity:0.6;fill:#ffffff;stroke-width:2.99390388" />
  </g>
</svg>
